<svg width="100%" height="100%" viewBox="0 0 67 24" fill="none" xmlns="http://www.w3.org/2000/svg">
<g clip-path="url(#clip0_25_3856)">
<path d="M33.3713 7.4137L36.5473 7.21437C36.6165 7.7306 36.7567 8.12362 36.9677 8.39341C37.3124 8.83072 37.8036 9.04937 38.4415 9.04937C38.9174 9.04937 39.2847 8.93783 39.5432 8.71475C39.6616 8.62212 39.7577 8.50418 39.8246 8.36957C39.8915 8.23495 39.9274 8.08707 39.9298 7.93677C39.9278 7.79268 39.8943 7.65076 39.8317 7.52096C39.7691 7.39116 39.6789 7.27662 39.5673 7.18538C39.3257 6.96471 38.756 6.75572 37.858 6.55841C36.3938 6.22982 35.3497 5.79251 34.7255 5.24648C34.4218 4.99208 34.1793 4.67254 34.016 4.31158C33.8526 3.95061 33.7727 3.5575 33.7821 3.16142C33.7844 2.60168 33.9525 2.05519 34.2653 1.59097C34.6225 1.06777 35.127 0.662444 35.7149 0.426431C36.3592 0.143751 37.2451 0.00241089 38.3726 0.00241089C39.753 0.00241089 40.8056 0.259319 41.5304 0.773136C42.2552 1.28695 42.6865 2.10358 42.8242 3.22303L39.6773 3.40665C39.5967 2.92344 39.4212 2.56988 39.1506 2.346C38.88 2.12211 38.5095 2.01057 38.0392 2.01137C37.6514 2.01137 37.3591 2.09472 37.1634 2.25902C37.0709 2.3301 36.9962 2.42162 36.9451 2.52642C36.8939 2.63121 36.8678 2.74643 36.8686 2.86303C36.8715 2.95352 36.8948 3.04219 36.9366 3.12248C36.9784 3.20278 37.0377 3.27265 37.1102 3.32692C37.2673 3.46947 37.6405 3.60235 38.23 3.72557C39.6894 4.03966 40.7363 4.35777 41.3709 4.67992C42.0056 5.00206 42.4646 5.40111 42.7481 5.87708C43.0374 6.35991 43.1867 6.91369 43.1794 7.47651C43.1828 8.15801 42.9831 8.82507 42.6055 9.39246C42.2126 9.98405 41.6537 10.4463 40.9989 10.7213C40.3103 11.0233 39.4429 11.1743 38.3968 11.1743C36.5597 11.1743 35.2873 10.8208 34.5794 10.1137C33.8715 9.40655 33.4688 8.50656 33.3713 7.4137ZM0.864371 10.9931V0.184824H6.42857C7.46023 0.184824 8.24868 0.27301 8.7939 0.449383C9.33096 0.62092 9.79528 0.967035 10.1131 1.43272C10.459 1.94961 10.6351 2.56149 10.6168 3.18316C10.6308 3.72567 10.4972 4.26179 10.2303 4.73428C9.97407 5.17228 9.61129 5.53839 9.17564 5.79856C8.80939 6.00058 8.41413 6.14482 8.00385 6.2262C8.31084 6.3166 8.60332 6.45044 8.87242 6.62364C9.07241 6.78988 9.25241 6.9788 9.40879 7.18659C9.58472 7.3931 9.74047 7.61599 9.87388 7.85221L11.4902 10.9931H7.71754L5.93449 7.68671C5.70818 7.25907 5.50684 6.98122 5.33047 6.85317C5.09013 6.68661 4.80381 6.59919 4.51142 6.60311H4.21425V10.9931H0.864371ZM4.21425 4.56153H5.62523C5.92384 4.53923 6.21981 4.48991 6.50951 4.41415C6.726 4.37261 6.91908 4.25151 7.05071 4.07469C7.18991 3.89609 7.26406 3.67535 7.26091 3.44893C7.26999 3.29861 7.24481 3.14819 7.18726 3.00903C7.12971 2.86986 7.0413 2.74559 6.9287 2.64559C6.70803 2.45875 6.29287 2.36532 5.68322 2.36532H4.21425V4.56153ZM0.106934 20.2418L3.28285 20.0437C3.35211 20.5599 3.49225 20.9529 3.70325 21.2227C4.04391 21.66 4.53639 21.8787 5.18067 21.8787C5.65664 21.8787 6.02388 21.7667 6.2824 21.5429C6.40079 21.4502 6.49695 21.3323 6.56384 21.1977C6.63073 21.0631 6.66665 20.9152 6.66897 20.7649C6.66684 20.6208 6.63331 20.4789 6.57072 20.3492C6.50813 20.2194 6.41798 20.1048 6.30656 20.0135C6.06495 19.7928 5.49516 19.5842 4.59719 19.3877C3.13306 19.0575 2.08891 18.6202 1.46476 18.0758C1.16108 17.8211 0.918594 17.5013 0.755274 17.1402C0.591954 16.779 0.511984 16.3858 0.521289 15.9895C0.523963 15.4298 0.692083 14.8835 1.0045 14.4191C1.36169 13.8959 1.86624 13.4906 2.45414 13.2545C3.09843 12.9719 3.98432 12.8305 5.11182 12.8305C6.4922 12.8305 7.5448 13.0874 8.26962 13.6012C8.99444 14.1151 9.4257 14.9317 9.56342 16.0511L6.42253 16.236C6.342 15.7527 6.16643 15.3988 5.89583 15.1741C5.62523 14.9494 5.25517 14.8391 4.78565 14.8431C4.39827 14.8431 4.10633 14.9236 3.90982 15.0847C3.81738 15.1558 3.74267 15.2473 3.69153 15.3521C3.64039 15.4569 3.61421 15.5721 3.61506 15.6887C3.61782 15.7794 3.64097 15.8683 3.68279 15.9488C3.72462 16.0294 3.78405 16.0994 3.85667 16.1538C4.01371 16.2964 4.387 16.4288 4.97652 16.5513C6.43582 16.8653 7.48278 17.1835 8.1174 17.5056C8.75202 17.8277 9.21108 18.2268 9.49456 18.7028C9.78369 19.1857 9.933 19.7394 9.92583 20.3022C9.92945 20.9837 9.72966 21.6508 9.35201 22.2181C8.9591 22.8097 8.40013 23.272 7.74533 23.547C7.05675 23.849 6.18938 24 5.14322 24C3.30621 24 2.03375 23.6464 1.32584 22.9393C0.617932 22.2322 0.21163 21.3331 0.106934 20.2418ZM19.7979 19.395L22.7237 20.2793C22.5619 21.0215 22.2454 21.7213 21.7948 22.3329C21.3841 22.8733 20.8441 23.3017 20.2243 23.5784C19.5977 23.8578 18.8004 23.9976 17.8324 23.9976C16.6582 23.9976 15.699 23.8272 14.9549 23.4866C14.2107 23.1459 13.5664 22.5455 13.022 21.6854C12.4808 20.8261 12.2106 19.7264 12.2114 18.3863C12.2114 16.6 12.6866 15.2265 13.6369 14.2657C14.5872 13.3049 15.9322 12.8249 17.6717 12.8257C19.0336 12.8257 20.1035 13.1011 20.8815 13.652C21.6595 14.2028 22.2377 15.0485 22.6162 16.1888L19.6686 16.8448C19.5994 16.5877 19.4902 16.3431 19.3449 16.12C19.1663 15.8721 18.9316 15.6701 18.6599 15.5305C18.3783 15.3902 18.0672 15.3193 17.7527 15.3239C16.9965 15.3239 16.417 15.6283 16.0143 16.2372C15.7083 16.689 15.5557 17.3981 15.5565 18.3645C15.5565 19.5613 15.7385 20.3819 16.1025 20.8265C16.4665 21.271 16.9775 21.4929 17.6355 21.4921C18.2733 21.4921 18.7566 21.3129 19.0851 20.9545C19.4137 20.5962 19.6513 20.0763 19.7979 19.395ZM25.2956 13.0129H28.6334V16.7917H32.2817V13.0129H35.634V23.8164H32.2817V19.4493H28.6334V23.82H25.2956V13.0129ZM37.7118 18.4213C37.7118 16.6592 38.2031 15.286 39.1856 14.3019C40.1681 13.3178 41.5372 12.8265 43.2929 12.8281C45.0905 12.8281 46.4757 13.3113 47.4486 14.2777C48.4214 15.2442 48.9091 16.596 48.9115 18.3331C48.9115 19.5967 48.6989 20.6324 48.2736 21.4402C47.8598 22.2373 47.2187 22.8936 46.4314 23.3259C45.626 23.7753 44.625 24 43.4282 24C42.2105 24 41.2038 23.8059 40.4081 23.4177C39.5907 23.0126 38.9142 22.3706 38.4668 21.5755C37.9627 20.7363 37.711 19.6849 37.7118 18.4213ZM41.0496 18.437C41.0496 19.5283 41.2509 20.3119 41.6536 20.7878C42.0563 21.2638 42.608 21.5018 43.3086 21.5018C44.0262 21.5018 44.5815 21.2686 44.9745 20.8023C45.3675 20.336 45.564 19.4985 45.564 18.2896C45.564 17.2725 45.3587 16.5291 44.9479 16.0596C44.5372 15.5901 43.9807 15.3557 43.2784 15.3565C42.9731 15.3455 42.6692 15.4037 42.3895 15.5267C42.1098 15.6497 41.8616 15.8344 41.6633 16.0668C41.255 16.5501 41.0504 17.3401 41.0496 18.437Z" fill="#2D3748"/>
<path d="M47.4957 18.4213C47.4957 16.6592 47.9869 15.286 48.9695 14.3019C49.952 13.3178 51.3211 12.8265 53.0768 12.8281C54.8759 12.8281 56.2616 13.3113 57.2336 14.2777C58.2057 15.2442 58.6917 16.5964 58.6917 18.3343C58.6917 19.5979 58.4795 20.6336 58.0551 21.4414C57.6409 22.2383 56.9998 22.8945 56.2128 23.3271C55.4075 23.7765 54.4064 24.0012 53.2097 24.0012C51.9912 24.0012 50.9845 23.8071 50.1896 23.4189C49.372 23.0135 48.6952 22.3716 48.2471 21.5767C47.7461 20.7367 47.4957 19.6849 47.4957 18.4213ZM50.8347 18.437C50.8347 19.5283 51.036 20.3119 51.4387 20.7878C51.8414 21.2638 52.3938 21.5022 53.0961 21.503C53.8137 21.503 54.369 21.2698 54.762 20.8035C55.155 20.3372 55.3515 19.4997 55.3515 18.2908C55.3515 17.2737 55.1465 16.5303 54.7366 16.0608C54.3267 15.5913 53.7702 15.3569 53.0671 15.3577C52.7613 15.3459 52.4567 15.4036 52.1763 15.5265C51.896 15.6493 51.6471 15.834 51.4484 16.0668C51.0384 16.55 50.8339 17.3401 50.8347 18.437Z" fill="#2D3748"/>
<path d="M58.3438 13.0129H61.6828V21.1563H66.8931V23.814H58.3438V13.0129Z" fill="#2D3748"/>
</g>
<defs>
<clipPath id="clip0_25_3856">
<rect width="66.7861" height="24" fill="white" transform="translate(0.106934)"/>
</clipPath>
</defs>
</svg>
