<svg width="100%" height="100%" viewBox="0 0 134 24" fill="none" xmlns="http://www.w3.org/2000/svg">
<path d="M2.39999 4.32C2.39999 3.25961 3.25961 2.4 4.31999 2.4H8.87999C9.94038 2.4 10.8 3.25961 10.8 4.32V14.88C10.8 15.9404 9.94038 16.8 8.87999 16.8H4.31999C3.25961 16.8 2.39999 15.9404 2.39999 14.88V4.32Z" fill="url(#paint0_linear_21_2004)"/>
<path d="M13.2 4.32C13.2 3.25962 14.0596 2.4 15.12 2.4H19.68C20.7404 2.4 21.6 3.25961 21.6 4.32V19.68C21.6 20.7404 20.7404 21.6 19.68 21.6H15.12C14.0596 21.6 13.2 20.7404 13.2 19.68V4.32Z" fill="url(#paint1_linear_21_2004)"/>
<path d="M29.2642 19V4.45455H35.0028C36.1013 4.45455 37.0388 4.65104 37.8153 5.04403C38.5966 5.43229 39.1908 5.9839 39.598 6.69886C40.0099 7.40909 40.2159 8.24479 40.2159 9.20597C40.2159 10.1719 40.0076 11.0028 39.5909 11.6989C39.1742 12.3902 38.5705 12.9205 37.7798 13.2898C36.9938 13.6591 36.0421 13.8438 34.9247 13.8438H31.0824V11.3722H34.4276C35.0147 11.3722 35.5024 11.2917 35.8906 11.1307C36.2789 10.9697 36.5677 10.7282 36.7571 10.4062C36.9512 10.0843 37.0483 9.68419 37.0483 9.20597C37.0483 8.72301 36.9512 8.31581 36.7571 7.98438C36.5677 7.65294 36.2765 7.40199 35.8835 7.23153C35.4953 7.05634 35.0052 6.96875 34.4134 6.96875H32.3395V19H29.2642ZM37.1193 12.3807L40.7344 19H37.3395L33.8026 12.3807H37.1193ZM50.2798 8.63778C50.223 8.06487 49.9792 7.61979 49.5483 7.30256C49.1174 6.98532 48.5327 6.8267 47.794 6.8267C47.2921 6.8267 46.8684 6.89773 46.5227 7.03977C46.1771 7.17708 45.9119 7.36884 45.7273 7.61506C45.5473 7.86127 45.4574 8.14062 45.4574 8.45312C45.4479 8.71354 45.5024 8.94081 45.6207 9.13494C45.7438 9.32907 45.9119 9.49716 46.125 9.6392C46.3381 9.77651 46.5843 9.89725 46.8636 10.0014C47.143 10.1009 47.4413 10.1861 47.7585 10.2571L49.0653 10.5696C49.6998 10.7116 50.2822 10.901 50.8125 11.1378C51.3428 11.3745 51.8021 11.6657 52.1903 12.0114C52.5786 12.357 52.8793 12.7642 53.0923 13.233C53.3101 13.7017 53.4214 14.2391 53.4261 14.8452C53.4214 15.7353 53.1941 16.5071 52.7443 17.1605C52.2992 17.8092 51.6553 18.3134 50.8125 18.6733C49.9744 19.0284 48.9635 19.206 47.7798 19.206C46.6056 19.206 45.5829 19.026 44.7116 18.6662C43.8452 18.3063 43.1681 17.7737 42.6804 17.0682C42.1974 16.358 41.9441 15.4796 41.9205 14.4332H44.8963C44.9295 14.9209 45.0691 15.3281 45.3153 15.6548C45.5663 15.9768 45.9001 16.2206 46.3168 16.3864C46.7382 16.5473 47.214 16.6278 47.7443 16.6278C48.2652 16.6278 48.7173 16.5521 49.1009 16.4006C49.4891 16.2491 49.7898 16.0384 50.0028 15.7685C50.2159 15.4986 50.3224 15.1884 50.3224 14.8381C50.3224 14.5114 50.2254 14.2367 50.0312 14.0142C49.8419 13.7917 49.5625 13.6023 49.1932 13.446C48.8286 13.2898 48.3812 13.1477 47.8509 13.0199L46.267 12.6222C45.0407 12.3239 44.0724 11.8575 43.3622 11.223C42.652 10.5885 42.2992 9.7339 42.304 8.65909C42.2992 7.77841 42.5336 7.009 43.0071 6.35085C43.4853 5.69271 44.1411 5.17898 44.9744 4.80966C45.8078 4.44034 46.7547 4.25568 47.8153 4.25568C48.8949 4.25568 49.8371 4.44034 50.642 4.80966C51.4517 5.17898 52.0814 5.69271 52.5312 6.35085C52.9811 7.009 53.2131 7.77131 53.2273 8.63778H50.2798ZM59.5696 6.99006V4.45455H71.5156V6.99006H67.0625V19H64.0227V6.99006H59.5696ZM72.2933 19V8.09091H75.2266V9.99432H75.3402C75.5391 9.31723 75.8729 8.80587 76.3416 8.46023C76.8104 8.10985 77.3501 7.93466 77.9609 7.93466C78.1125 7.93466 78.2758 7.94413 78.451 7.96307C78.6262 7.98201 78.7801 8.00805 78.9126 8.04119V10.7259C78.7706 10.6832 78.5741 10.6454 78.3232 10.6122C78.0722 10.5791 77.8426 10.5625 77.6342 10.5625C77.1892 10.5625 76.7914 10.6596 76.4411 10.8537C76.0954 11.0431 75.8208 11.3082 75.6172 11.6491C75.4183 11.9901 75.3189 12.383 75.3189 12.8281V19H72.2933ZM83.2752 19.206C82.5792 19.206 81.9589 19.0852 81.4144 18.8438C80.8699 18.5975 80.439 18.2353 80.1218 17.7571C79.8093 17.2741 79.6531 16.6728 79.6531 15.9531C79.6531 15.3471 79.7643 14.8381 79.9869 14.4261C80.2094 14.0142 80.5124 13.6828 80.896 13.4318C81.2795 13.1809 81.7151 12.9915 82.2028 12.8636C82.6952 12.7358 83.2113 12.6458 83.7511 12.5938C84.3855 12.5275 84.8969 12.4659 85.2852 12.4091C85.6734 12.3475 85.9551 12.2576 86.1303 12.1392C86.3055 12.0208 86.3931 11.8456 86.3931 11.6136V11.571C86.3931 11.1212 86.2511 10.7732 85.967 10.527C85.6876 10.2808 85.2899 10.1577 84.7738 10.1577C84.2293 10.1577 83.796 10.2784 83.4741 10.5199C83.1521 10.7566 82.939 11.0549 82.8349 11.4148L80.0366 11.1875C80.1786 10.5246 80.458 9.9517 80.8746 9.46875C81.2913 8.98106 81.8287 8.60701 82.4869 8.34659C83.1497 8.08144 83.9168 7.94886 84.788 7.94886C85.3941 7.94886 85.9741 8.01989 86.5281 8.16193C87.0868 8.30398 87.5816 8.52415 88.0124 8.82244C88.448 9.12074 88.7913 9.50426 89.0423 9.97301C89.2932 10.437 89.4187 10.9934 89.4187 11.642V19H86.5494V17.4872H86.4641C86.2889 17.8281 86.0546 18.1288 85.761 18.3892C85.4674 18.6449 85.1147 18.8461 84.7028 18.9929C84.2908 19.1349 83.815 19.206 83.2752 19.206ZM84.1417 17.1179C84.5868 17.1179 84.9798 17.0303 85.3207 16.8551C85.6616 16.6752 85.9291 16.4337 86.1232 16.1307C86.3174 15.8277 86.4144 15.4844 86.4144 15.1009V13.9432C86.3197 14.0047 86.1895 14.0616 86.0238 14.1136C85.8628 14.161 85.6805 14.206 85.4769 14.2486C85.2733 14.2865 85.0697 14.322 84.8661 14.3551C84.6625 14.3835 84.4779 14.4096 84.3121 14.4332C83.957 14.4853 83.6469 14.5682 83.3817 14.6818C83.1166 14.7955 82.9106 14.9493 82.7638 15.1435C82.6171 15.3329 82.5437 15.5696 82.5437 15.8537C82.5437 16.2656 82.6928 16.5805 82.9911 16.7983C83.2942 17.0114 83.6777 17.1179 84.1417 17.1179ZM96.695 19.2131C95.5775 19.2131 94.6164 18.9763 93.8114 18.5028C93.0112 18.0246 92.3957 17.3617 91.9648 16.5142C91.5387 15.6667 91.3256 14.6913 91.3256 13.5881C91.3256 12.4706 91.5411 11.4905 91.9719 10.6477C92.4076 9.80019 93.0254 9.13968 93.8256 8.66619C94.6258 8.18797 95.5775 7.94886 96.6808 7.94886C97.6325 7.94886 98.4658 8.12169 99.1808 8.46733C99.8957 8.81297 100.462 9.2983 100.878 9.9233C101.295 10.5483 101.525 11.2822 101.567 12.125H98.712C98.6315 11.5805 98.4184 11.1425 98.0728 10.8111C97.7319 10.4749 97.2844 10.3068 96.7305 10.3068C96.2617 10.3068 95.8522 10.4347 95.5018 10.6903C95.1561 10.9413 94.8862 11.3082 94.6921 11.7912C94.498 12.2741 94.4009 12.8589 94.4009 13.5455C94.4009 14.2415 94.4956 14.8333 94.685 15.321C94.8791 15.8087 95.1514 16.1804 95.5018 16.4361C95.8522 16.6918 96.2617 16.8196 96.7305 16.8196C97.0761 16.8196 97.3862 16.7486 97.6609 16.6065C97.9402 16.4645 98.1699 16.2585 98.3498 15.9886C98.5344 15.714 98.6552 15.3849 98.712 15.0014H101.567C101.52 15.8348 101.292 16.5687 100.885 17.2031C100.483 17.8329 99.9265 18.3253 99.2163 18.6804C98.506 19.0355 97.6656 19.2131 96.695 19.2131ZM106.246 15.8608L106.253 12.2315H106.693L110.188 8.09091H113.661L108.966 13.5739H108.249L106.246 15.8608ZM103.504 19V4.45455H106.53V19H103.504ZM110.322 19L107.112 14.2486L109.129 12.1108L113.866 19H110.322ZM119.667 19.2131C118.545 19.2131 117.579 18.9858 116.77 18.5312C115.965 18.072 115.344 17.4233 114.909 16.5852C114.473 15.7424 114.255 14.7457 114.255 13.5952C114.255 12.473 114.473 11.4882 114.909 10.6406C115.344 9.79309 115.958 9.13258 116.748 8.65909C117.544 8.18561 118.476 7.94886 119.547 7.94886C120.266 7.94886 120.936 8.06487 121.556 8.29688C122.181 8.52415 122.726 8.86742 123.19 9.3267C123.659 9.78598 124.023 10.3636 124.284 11.0597C124.544 11.7509 124.674 12.5606 124.674 13.4886V14.3196H115.463V12.4446H121.826C121.826 12.009 121.732 11.6231 121.542 11.2869C121.353 10.9508 121.09 10.688 120.754 10.4986C120.422 10.3045 120.037 10.2074 119.596 10.2074C119.137 10.2074 118.73 10.3139 118.375 10.527C118.024 10.7353 117.75 11.017 117.551 11.3722C117.352 11.7225 117.25 12.1132 117.245 12.544V14.3267C117.245 14.8665 117.345 15.3329 117.544 15.7259C117.747 16.1188 118.034 16.4219 118.403 16.6349C118.772 16.848 119.21 16.9545 119.717 16.9545C120.053 16.9545 120.361 16.9072 120.64 16.8125C120.92 16.7178 121.159 16.5758 121.358 16.3864C121.556 16.197 121.708 15.965 121.812 15.6903L124.61 15.875C124.468 16.5473 124.177 17.1345 123.737 17.6364C123.301 18.1335 122.738 18.5218 122.047 18.8011C121.36 19.0758 120.567 19.2131 119.667 19.2131ZM126.649 19V8.09091H129.582V9.99432H129.696C129.895 9.31723 130.228 8.80587 130.697 8.46023C131.166 8.10985 131.706 7.93466 132.316 7.93466C132.468 7.93466 132.631 7.94413 132.806 7.96307C132.982 7.98201 133.136 8.00805 133.268 8.04119V10.7259C133.126 10.6832 132.93 10.6454 132.679 10.6122C132.428 10.5791 132.198 10.5625 131.99 10.5625C131.545 10.5625 131.147 10.6596 130.797 10.8537C130.451 11.0431 130.176 11.3082 129.973 11.6491C129.774 11.9901 129.674 12.383 129.674 12.8281V19H126.649Z" fill="url(#paint2_linear_21_2004)"/>
<defs>
<linearGradient id="paint0_linear_21_2004" x1="12" y1="2.4" x2="12" y2="21.6" gradientUnits="userSpaceOnUse">
<stop stop-color="#00FFFF"/>
<stop offset="1" stop-color="#007DC4"/>
</linearGradient>
<linearGradient id="paint1_linear_21_2004" x1="12" y1="2.4" x2="12" y2="21.6" gradientUnits="userSpaceOnUse">
<stop stop-color="#00FFFF"/>
<stop offset="1" stop-color="#007DC4"/>
</linearGradient>
<linearGradient id="paint2_linear_21_2004" x1="81" y1="0" x2="81" y2="24" gradientUnits="userSpaceOnUse">
<stop stop-color="#00FFFF"/>
<stop offset="1" stop-color="#007DC4"/>
</linearGradient>
</defs>
</svg>
