<svg width="29" height="19" viewBox="0 0 29 19" fill="none" xmlns="http://www.w3.org/2000/svg">
<g clip-path="url(#clip0_1712_57053)">
<path d="M0 0V19H29V0H0Z" fill="#012169"/>
<path d="M0 0L29 19L0 0ZM29 0L0 19L29 0Z" fill="black"/>
<path d="M29 0L0 19M0 0L29 19L0 0Z" stroke="white" stroke-width="3.86667"/>
<path d="M0 0L29 19L0 0ZM29 0L0 19L29 0Z" fill="black"/>
<path d="M29 0L0 19M0 0L29 19L0 0Z" stroke="#C8102E" stroke-width="2.57778"/>
<path d="M14.5 0V19V0ZM0 9.5H29H0Z" fill="black"/>
<path d="M0 9.5H29M14.5 0V19V0Z" stroke="white" stroke-width="6.44444"/>
<path d="M14.5 0V19V0ZM0 9.5H29H0Z" fill="black"/>
<path d="M0 9.5H29M14.5 0V19V0Z" stroke="#C8102E" stroke-width="3.86667"/>
</g>
<defs>
<clipPath id="clip0_1712_57053">
<rect width="29" height="19" fill="white"/>
</clipPath>
</defs>
</svg>
